HIERARCHY
ROOT Hips
{
    OFFSET 0.000000 0.000000 0.000000
    CHANNELS 6 Xposition Yposition Zposition Zrotation Xrotation Yrotation
        JOINT Chest
        {
            OFFSET -0.000000 31.986500 -0.000000
            CHANNELS 3 Zrotation Xrotation Yrotation
            JOINT Neck
            {
                OFFSET -0.000000 24.131615 0.000000
                CHANNELS 3 Zrotation Xrotation Yrotation
                JOINT Head
                {
                    OFFSET -0.000000 10.450000 0.000000
                    CHANNELS 3 Zrotation Xrotation Yrotation
                    End Site
                    {
                        OFFSET -0.000000 16.150003 0.000000
                    }
                }
            }
            JOINT LeftCollar
            {
                OFFSET -0.000000 24.131615 0.000000
                CHANNELS 3 Zrotation Xrotation Yrotation
                JOINT LeftShoulder
                {
                    OFFSET 20.000000 -0.000000 0.000000
                    CHANNELS 3 Zrotation Xrotation Yrotation
                    JOINT LeftElbow
                    {
                        OFFSET 22.686384 0.000000 0.000000
                        CHANNELS 3 Zrotation Xrotation Yrotation
                        JOINT LeftWrist
                        {
                            OFFSET 24.813133 0.000000 0.000000
                            CHANNELS 3 Zrotation Xrotation Yrotation
                            End Site
                            {
                                OFFSET 0.000000 -14.250000 0.000000
                            }
                        }
                    }
                }
            }
            JOINT RightCollar
            {
                OFFSET -0.000000 24.131615 0.000000
                CHANNELS 3 Zrotation Xrotation Yrotation
                JOINT RightShoulder
                {
                    OFFSET -20.000000 0.000000 0.000000
                    CHANNELS 3 Zrotation Xrotation Yrotation
                    JOINT RightElbow
                    {
                        OFFSET -22.686384 0.000000 0.000000
                        CHANNELS 3 Zrotation Xrotation Yrotation
                        JOINT RightWrist
                        {
                            OFFSET -24.813133 0.000000 0.000000
                            CHANNELS 3 Zrotation Xrotation Yrotation
                            End Site
                            {
                                OFFSET -0.000000 -14.250000 0.000000
                            }
                        }
                    }
                }
            }
        }
    JOINT LeftHip
    {
        OFFSET 11.400001 0.000000 0.000000
        CHANNELS 3 Zrotation Xrotation Yrotation
        JOINT LeftKnee
        {
            OFFSET -0.000000 -38.315727 0.000000
            CHANNELS 3 Zrotation Xrotation Yrotation
            JOINT LeftAnkle
            {
                OFFSET -0.000000 -38.060658 0.000000
                CHANNELS 3 Zrotation Xrotation Yrotation
                End Site
                {
                    OFFSET -0.000000 -4.750000 16.150003
                }
            }
        }
    }
    JOINT RightHip
    {
        OFFSET -11.400001 0.000000 0.000000
        CHANNELS 3 Zrotation Xrotation Yrotation
        JOINT RightKnee
        {
            OFFSET -0.000000 -38.315727 0.000000
            CHANNELS 3 Zrotation Xrotation Yrotation
            JOINT RightAnkle
            {
                OFFSET -0.000000 -38.060658 0.000000
                CHANNELS 3 Zrotation Xrotation Yrotation
                End Site
                {
                    OFFSET -0.000000 -4.750000 16.150003
                }
            }
        }
    }
}
MOTION
Frames:    9
Frame Time:    0.010000
58.927929    78.856369    12.094418    -3.657476    3.040741    -94.020027    6.290457    17.782749    7.960401    -7.287990    9.858112    17.869589    -13.203338    -21.749170    15.459157    -22.487093    -1.554245    7.946734    -48.442474    25.797110    -22.946159    -2.006095    1.963524    -87.763298    130.621567    -7.895981    -16.930153    28.349216    1.423237    5.741312    9.616096    55.793694    34.481800    -8.672275    -6.628226    74.452461    -144.432144    -7.746529    -5.967458    13.325774    -22.529062    -6.000311    -18.742617    44.402946    6.169106    -1.803244    -15.752592    31.435858    -4.891960    -2.736058    2.042423    -7.121922    41.847702    6.618918    12.581146    -32.261402    -9.645758    
59.129387    79.171257    12.084505    -3.278806    3.065525    -94.212852    6.833356    17.237261    7.854424    -3.689393    9.114820    15.618649    -12.468643    -17.747063    13.316211    -21.700972    -1.125898    4.089932    -48.929111    26.850725    -22.288746    -2.125430    2.141169    -87.556870    131.749557    -7.736671    -16.550829    28.328934    0.814149    0.825657    6.363273    55.349297    39.185741    -10.494250    -8.918188    73.387810    -142.250275    -7.165485    -6.135816    13.252102    -22.461435    -6.191378    -18.217333    43.443478    5.775585    -1.980592    -15.329864    31.774452    -4.754251    -3.038111    2.444864    -6.730325    41.102097    4.286467    12.773531    -31.341196    -8.137513    
59.064240    79.572350    11.953799    -4.116936    3.611049    -94.367378    7.543237    18.378866    7.526997    -3.531615    8.560015    15.665315    -13.121666    -17.185493    13.411748    -21.505096    -0.933507    4.030649    -49.064465    26.732708    -22.767433    -1.927766    1.683458    -87.600296    130.938202    -7.726526    -16.558603    27.981741    0.542064    1.122880    7.561821    55.278358    38.119030    -10.504665    -8.170087    74.229736    -143.373825    -5.601958    -6.390337    13.710497    -21.001940    -5.590729    -16.996784    42.606102    4.680248    -2.495568    -15.032862    31.649876    -4.082697    -1.664593    3.025634    -6.514889    39.993896    4.905354    12.480085    -30.693399    -9.406489    
59.166294    79.809532    11.917409    -4.031556    3.707349    -94.519257    7.766473    18.341757    7.407266    -3.423388    8.409812    15.758977    -13.374003    -16.872398    13.517724    -21.368977    -0.839795    4.018167    -49.208485    26.734060    -22.912167    -1.690010    1.398041    -87.616348    130.888351    -7.585391    -16.339659    27.874590    0.393325    1.019095    7.102931    55.795357    38.728840    -10.838807    -8.459283    74.310341    -143.136124    -4.910689    -6.470456    13.757233    -20.718554    -5.512800    -16.477325    41.911884    4.383011    -2.769770    -14.762461    31.688173    -3.906913    -1.591680    3.280900    -6.396537    39.410076    4.613689    12.438037    -30.208256    -9.458458    
59.296715    80.069061    11.878280    -3.871025    3.788283    -94.699112    7.983926    18.227182    7.285065    -3.276244    8.261815    15.847457    -13.651711    -16.556059    13.618184    -21.211334    -0.784431    3.980968    -49.352566    26.755114    -23.014149    -1.455948    1.178832    -87.616920    130.943466    -7.379585    -16.046886    27.766624    0.296656    0.873516    6.485526    56.271137    39.521362    -11.261842    -8.846941    74.368423    -142.832214    -4.136975    -6.618423    13.790428    -20.467875    -5.431508    -15.921585    41.119904    4.105636    -3.073261    -14.455095    31.717434    -3.738616    -1.583818    3.526625    -6.297445    38.759693    4.379933    12.384183    -29.689564    -9.546010    
59.454895    80.341347    11.836546    -3.632843    3.848368    -94.904076    8.182667    18.033909    7.165526    -3.112585    8.131595    15.944465    -13.940101    -16.274338    13.723272    -21.043703    -0.738476    3.943199    -49.461922    26.766764    -23.117144    -1.250581    1.002639    -87.615265    131.083725    -7.146490    -15.728074    27.660437    0.229556    0.726778    5.790578    56.720749    40.397434    -11.732027    -9.252957    74.430229    -142.544754    -3.264218    -6.858678    13.808320    -20.264942    -5.345500    -15.345462    40.251614    3.861796    -3.394484    -14.117510    31.732555    -3.585164    -1.645954    3.743519    -6.226707    38.052456    4.217063    12.320195    -29.156752    -9.659190    
59.639400    80.615959    11.792288    -3.319303    3.882860    -95.129753    8.353178    17.764416    7.053424    -2.934045    8.026729    16.046587    -14.228959    -16.044298    13.827997    -20.870255    -0.726584    3.901443    -49.522167    26.792408    -23.224037    -1.040562    0.807840    -87.635040    131.234222    -6.923028    -15.424998    27.557629    0.169022    0.591753    5.081715    57.140060    41.290791    -12.219921    -9.654722    74.498428    -142.287308    -2.331399    -7.193694    13.809978    -20.122360    -5.254822    -14.765716    39.332642    3.663221    -3.723965    -13.759336    31.729519    -3.453054    -1.778541    3.912363    -6.191516    37.300076    4.132922    12.245879    -28.631411    -9.785595    
59.847839    80.882378    11.745442    -2.938187    3.888494    -95.370728    8.489153    17.426189    6.952534    -2.746670    7.950941    16.152782    -14.507257    -15.876552    13.931413    -20.700886    -0.695273    3.857143    -49.502628    26.778097    -23.363626    -0.881500    0.700759    -87.645744    131.543732    -6.665958    -15.083787    27.459171    0.133831    0.485306    4.447282    57.495853    42.105595    -12.665099    -9.990374    74.599953    -142.099808    -1.369385    -7.610201    13.796109    -20.048065    -5.160893    -14.199403    38.390530    3.516946    -4.055771    -13.393615    31.706842    -3.346885    -1.976281    4.017128    -6.196424    36.515560    4.132030    12.159016    -28.136034    -9.914602    
60.077084    81.130707    11.695775    -2.501804    3.863787    -95.620750    8.586592    17.030769    6.866530    -2.551658    7.903206    16.258652    -14.767591    -15.769168    14.029117    -20.538076    -0.684371    3.804564    -49.401596    26.774158    -23.535906    -0.728739    0.555621    -87.682701    131.848480    -6.453557    -14.783295    27.366442    0.105126    0.414149    3.911881    57.790390    42.821266    -13.075140    -10.295954    74.709641    -141.938705    -0.438112    -8.093312    13.769269    -20.045567    -5.066812    -13.663848    37.453396    3.425788    -4.386650    -13.035312    31.665157    -3.268979    -2.229458    4.048643    -6.241560    35.713890    4.217750    12.055457    -27.694017    -10.043238    
